{"asset": {"version": "2.0"}, "buffers": [{"byteLength": 96, "uri": "data:application/octet-stream;base64,"}], "bufferViews": [{"buffer": 0, "byteOffset": 0, "byteLength": 60, "target": 34962}, {"buffer": 0, "byteOffset": 60, "byteLength": 36, "target": 34963}], "accessors": [{"bufferView": 0, "componentType": 5126, "count": 5, "type": "VEC3", "min": [-0.6, 0, -0.175], "max": [0.6, 0.35, 0.175]}, {"bufferView": 1, "componentType": 5123, "count": 18, "type": "SCALAR"}], "meshes": [{"primitives": [{"attributes": {"POSITION": 0}, "indices": 1}]}], "nodes": [{"mesh": 0}], "scenes": [{"nodes": [0]}], "scene": 0}