{"asset":{"version":"2.0","generator":"watch-london-move generate-models"},"scene":0,"scenes":[{"nodes":[0]}],"nodes":[{"mesh":0}],"meshes":[{"primitives":[{"attributes":{"POSITION":0,"NORMAL":1},"indices":2,"material":0},{"attributes":{"POSITION":3,"NORMAL":4},"indices":5,"material":1},{"attributes":{"POSITION":6,"NORMAL":7},"indices":8,"material":2},{"attributes":{"POSITION":9,"NORMAL":10},"indices":11,"material":3}]}],"materials":[{"pbrMetallicRoughness":{"baseColorFactor":[0.09,0.1,0.13,1],"metallicFactor":0,"roughnessFactor":0.9},"doubleSided":true},{"pbrMetallicRoughness":{"baseColorFactor":[0.05,0.05,0.05,1],"metallicFactor":0,"roughnessFactor":0.9},"doubleSided":true},{"pbrMetallicRoughness":{"baseColorFactor":[0.93,0.93,0.93,1],"metallicFactor":0,"roughnessFactor":0.9},"doubleSided":true},{"pbrMetallicRoughness":{"baseColorFactor":[0.72,0.72,0.75,1],"metallicFactor":0,"roughnessFactor":0.9},"doubleSided":true}],"accessors":[{"bufferView":0,"componentType":5126,"count":192,"type":"VEC3","min":[-12.359999656677246,1.2999999523162842,-1.2350000143051147],"max":[12.359999656677246,2.299999952316284,1.2350000143051147]},{"bufferView":1,"componentType":5126,"count":192,"type":"VEC3"},{"bufferView":2,"componentType":5123,"count":288,"type":"SCALAR"},{"bufferView":3,"componentType":5126,"count":72,"type":"VEC3","min":[-11.949999809265137,0.10000000149011612,-1.0499999523162842],"max":[11.949999809265137,0.4000000059604645,1.0499999523162842]},{"bufferView":4,"componentType":5126,"count":72,"type":"VEC3"},{"bufferView":5,"componentType":5123,"count":108,"type":"SCALAR"},{"bufferView":6,"componentType":5126,"count":144,"type":"VEC3","min":[-12.350000381469727,0.4000000059604645,-1.2000000476837158],"max":[12.350000381469727,2.75,1.2000000476837158]},{"bufferView":7,"componentType":5126,"count":144,"type":"VEC3"},{"bufferView":8,"componentType":5123,"count":216,"type":"SCALAR"},{"bufferView":9,"componentType":5126,"count":144,"type":"VEC3","min":[-9.100000381469727,0.4000000059604645,-1.2400000095367432],"max":[9.100000381469727,1.899999976158142,1.2400000095367432]},{"bufferView":10,"componentType":5126,"count":144,"type":"VEC3"},{"bufferView":11,"componentType":5123,"count":216,"type":"SCALAR"}],"bufferViews":[{"buffer":0,"byteOffset":0,"byteLength":2304,"target":34962},{"buffer":0,"byteOffset":2304,"byteLength":2304,"target":34962},{"buffer":0,"byteOffset":4608,"byteLength":576,"target":34963},{"buffer":0,"byteOffset":5184,"byteLength":864,"target":34962},{"buffer":0,"byteOffset":6048,"byteLength":864,"target":34962},{"buffer":0,"byteOffset":6912,"byteLength":216,"target":34963},{"buffer":0,"byteOffset":7128,"byteLength":1728,"target":34962},{"buffer":0,"byteOffset":8856,"byteLength":1728,"target":34962},{"buffer":0,"byteOffset":10584,"byteLength":432,"target":34963},{"buffer":0,"byteOffset":11016,"byteLength":1728,"target":34962},{"buffer":0,"byteOffset":12744,"byteLength":1728,"target":34962},{"buffer":0,"byteOffset":14472,"byteLength":432,"target":34963}],"buffers":[{"byteLength":14904,"uri":"data:application/octet-stream;base64,"}]}